<svg width="270" height="391" viewBox="0 0 270 391" fill="none" xmlns="http://www.w3.org/2000/svg">
<path d="M255 246.5L217 255L212 266C207 272 211 278 217.5 277L219 275.5L222 272.5L224 284.5C228.5 297.5 258 293.5 260.5 275.5C259.561 262.65 258.039 256.701 255 246.5Z" fill="#E7F4FC"/>
<path d="M242.5 198C242.478 193.671 241.726 191.725 238.5 189.5L208.5 202.5L210.5 205.5L242.5 198Z" fill="#4061B9"/>
<rect x="106.818" y="104.298" width="136.133" height="152.62" rx="10" transform="rotate(18.6429 106.818 104.298)" fill="#73A7D3"/>
<path d="M110 150C106.153 151.13 104.722 150.42 103.5 146.5C103.667 144.5 104.2 140.3 105 139.5C105.8 138.7 110.667 127.5 113 122L115.5 117C117.5 117.5 121.6 118.5 122 118.5C122.4 118.5 123.833 119.833 124.5 120.5L127 124L110 150Z" fill="#4061B9"/>
<path d="M64 128C60.3559 127.146 58.9444 125.905 57 123L56 119.5L69.5 106L83.5 95L85.5 97L87 99L67 124L64 128Z" fill="#4061B9"/>
<path d="M56.5159 296.097L98.5115 310.054L77 363L40.5019 350.494L56.5159 296.097Z" fill="#E7F4FC"/>
<path d="M81 353L77 363L72 361.5C74.8348 356.798 76.8214 354.968 81 353Z" fill="#9FC0DF"/>
<path d="M47 330C49.5 330 60.5 336.5 70 360.5L31.5 347C31.7351 338.511 33.0567 334.703 38 330C38.0003 329.919 43.5 328.5 47 330Z" fill="#9FC0DF"/>
<path d="M118.188 316.925L160.119 331.287L138.51 383.175L103.06 370.848L118.188 316.925Z" fill="#E7F4FC"/>
<path d="M147 363C131 361.5 123 364.5 109.5 373.5L149.5 387C152.424 381.925 153.534 378.635 154 371.5C153.87 366.559 151.978 364.923 147 363Z" fill="#9FC0DF"/>
<path d="M103 371L106 360C107.723 363.538 108.353 366.073 108 373L103 371Z" fill="#9FC0DF"/>
<rect x="103.048" y="370.854" width="49.4875" height="3.8508" transform="rotate(19.1702 103.048 370.854)" fill="#4160BA"/>
<rect x="31.2732" y="346.721" width="48.5546" height="4.02509" transform="rotate(19.024 31.2732 346.721)" fill="#4160BA"/>
<rect x="60.6952" y="293.253" width="39.4549" height="4.03011" transform="rotate(18.38 60.6952 293.253)" fill="#435FA9"/>
<rect x="122.351" y="314.319" width="39.5861" height="3.82197" transform="rotate(18.91 122.351 314.319)" fill="#435FA9"/>
<rect x="77.9443" y="243.185" width="38.5926" height="52.9603" transform="rotate(18.38 77.9443 243.185)" fill="#E7F4FC"/>
<rect x="140.32" y="263.964" width="38.337" height="53.4728" transform="rotate(18.91 140.32 263.964)" fill="#E7F4FC"/>
<path d="M86.109 206.625C87.1459 204.497 89.5578 203.422 91.8422 204.042C130.865 214.631 153.408 222.54 189.715 237.181C191.917 238.069 193.193 240.393 192.73 242.722C190.005 256.437 187.127 265.19 180.874 277.712C179.878 279.706 177.653 280.768 175.469 280.321C134.377 271.914 111.569 264.319 76.959 247.039C74.9603 246.041 73.8733 243.824 74.3234 241.636C77.2142 227.584 80.1505 218.853 86.109 206.625Z" fill="#E7F4FC"/>
<path d="M223.5 154C222.85 149.112 221.636 148.162 218.5 148.5C215 156.333 207.9 172.2 207.5 173C207.1 173.8 205.333 182.667 204.5 187L209.5 189.5L223.5 154Z" fill="#4061B9"/>
<rect x="122.219" y="113.966" width="102.666" height="98.2098" rx="1" transform="rotate(19.2453 122.219 113.966)" fill="#E7F4FC"/>
<path d="M84.9999 96L120.5 114.5L103.5 147.5L63.9999 127.5L84.9999 96Z" fill="#E7F4FC"/>
<path d="M49.805 60.8272L85.9925 94.0086L56.0935 124.441L22.9485 87.7111L49.805 60.8272Z" fill="#E7F4FC"/>
<path d="M223.5 153L239.5 190L206.5 204.5L205.5 194.5L223.5 153Z" fill="#E7F4FC"/>
<path d="M209 205L245.5 196.5L254.5 245L217 253.5L209 205Z" fill="#E7F4FC"/>
<rect x="217.055" y="253.374" width="38.3543" height="1.81985" transform="rotate(-12.7411 217.055 253.374)" fill="#4061B9"/>
<path d="M2 65.5L22 86.5L49 60L28 38.5C14.5 28 -6.49997 52.4999 2 65.5Z" fill="#E7F4FC"/>
<path d="M32.5 76.5L49 60L52 47C52.5 41 46 39 42.5 43L39 54C25.4999 52.5 19.9999 67 32.5 76.5Z" fill="#9FC0DF"/>
<rect x="21.8218" y="86.4738" width="37.9384" height="1.68604" transform="rotate(-44.8581 21.8218 86.4738)" fill="#4061B9"/>
<rect x="249.556" y="88" width="20.5429" height="33.4377" rx="2" transform="rotate(15.0265 249.556 88)" fill="#B7B9B5"/>
<rect x="114.226" y="40.6895" width="21.4377" height="33.054" rx="2" transform="rotate(21.0666 114.226 40.6895)" fill="#B7B9B5"/>
<path d="M261.5 61.4999C263.464 88.5 241.5 150 208.542 144C169.606 144 110.5 119 116.542 86.9999C119 47.9999 139 1.49995 181.5 0.49991C220 -2.00005 258.593 21.5249 261.5 61.4999Z" fill="#E7F4FC"/>
<path d="M254 72C255.5 98.5 241 135 213.5 134C184.5 134 120.5 113 122 85.5C122 55.4005 134 27 168.5 20C195.5 18.0001 239 24.5 254 72Z" fill="#2D2D2D"/>
<path d="M222.271 48.9178C223.583 47.9609 225.342 47.8591 226.72 48.7194C237.146 55.2321 242.053 62.0547 247.06 76.8045C247.636 78.5018 247.023 80.3739 245.574 81.4301C243.229 83.141 239.903 81.9774 238.989 79.2217C235.346 68.2375 231.032 61.8854 222.526 56.002C220.082 54.3115 219.87 50.669 222.271 48.9178Z" fill="#414141"/>
<circle cx="256.5" cy="113.5" r="4.5" fill="#334283"/>
<circle cx="113.5" cy="64.5" r="4.5" fill="#334283"/>
<circle cx="256.5" cy="113.5" r="2.5" fill="#292B26"/>
<circle cx="113.5" cy="64.5" r="2.5" fill="#292B26"/>
<circle cx="117.5" cy="50.5" r="2.5" fill="#292B26"/>
<circle cx="260.5" cy="99.5" r="2.5" fill="#292B26"/>
<rect x="104.859" y="153.096" width="107.859" height="4.33343" rx="2.16672" transform="rotate(18.9808 104.859 153.096)" fill="#9DC0E0"/>
<rect x="97.9669" y="172.848" width="109.189" height="4.33343" rx="2.16672" transform="rotate(18.9808 97.9669 172.848)" fill="#9DC0E0"/>
<rect x="127" y="153" width="66.9279" height="39.1108" transform="rotate(18.8502 127 153)" fill="#6B7FB2"/>
<rect x="127.671" y="154.651" width="64.5064" height="36.5327" transform="rotate(18.8502 127.671 154.651)" fill="#BBBAB8"/>
<circle cx="134" cy="167" r="2.95" fill="#9DC0E0" stroke="black" stroke-width="0.1"/>
<circle cx="131" cy="175" r="2.95" fill="#4061B9" stroke="black" stroke-width="0.1"/>
<circle cx="128" cy="184" r="2.95" fill="#334283" stroke="black" stroke-width="0.1"/>
<rect x="142.523" y="170" width="24" height="17.5408" transform="rotate(18.85 142.523 170)" fill="#4574E0"/>
<rect x="168.431" y="180.044" width="13.09" height="3.55228" rx="1.77614" transform="rotate(18.3467 168.431 180.044)" fill="#3A3C3B"/>
<rect x="166.653" y="185.846" width="12.7651" height="3.55228" rx="1.77614" transform="rotate(18.3467 166.653 185.846)" fill="#3A3C3B"/>
<rect x="164.875" y="191.648" width="12.7651" height="3.55228" rx="1.77614" transform="rotate(18.3467 164.875 191.648)" fill="#3A3C3B"/>
<rect x="163.098" y="197.45" width="12.7651" height="3.55228" rx="1.77614" transform="rotate(18.3467 163.098 197.45)" fill="#3A3C3B"/>
<rect x="170.118" y="175" width="13.09" height="3.55228" rx="1.77614" transform="rotate(18.3467 170.118 175)" fill="#3A3C3B"/>
</svg>
