<svg width="167" height="161" viewBox="0 0 167 161" fill="none" xmlns="http://www.w3.org/2000/svg">
<path d="M162.396 90.3412C159.991 109.865 150.521 127.833 135.773 140.851C121.025 153.869 102.021 161.037 82.3497 161C62.6782 160.963 43.701 153.725 29.002 140.652C14.303 127.578 4.89955 109.576 2.56762 90.0428L6.844 89.5322C9.05118 108.02 17.9515 125.06 31.8641 137.433C45.7768 149.807 63.7387 156.658 82.3577 156.693C100.977 156.728 118.964 149.944 132.923 137.622C146.882 125.301 155.846 108.294 158.122 89.8147L162.396 90.3412Z" fill="#242526"/>
<path d="M162.288 69.8152C159.696 50.4581 150.155 32.7034 135.443 19.8591C120.731 7.01473 101.851 -0.0432162 82.321 0.000198905C62.7911 0.043614 43.943 7.18543 29.2883 20.095C14.6335 33.0046 5.17165 50.8016 2.66553 70.1701L6.93706 70.7228C9.30909 52.3906 18.2647 35.5459 32.1353 23.327C46.006 11.1081 63.8457 4.34842 82.3306 4.30732C100.816 4.26623 118.685 10.9465 132.61 23.1036C146.535 35.2607 155.565 52.0655 158.019 70.3869L162.288 69.8152Z" fill="#242526"/>
<line x1="9" y1="79.5" x2="155" y2="79.5" stroke="#242526" stroke-width="3"/>
<circle cx="160.5" cy="79.5" r="6.5" fill="#242526"/>
<circle cx="6.5" cy="79.5" r="6.5" fill="#242526"/>
</svg>
