<svg width="148" height="148" viewBox="0 0 148 148" fill="none" xmlns="http://www.w3.org/2000/svg">
<g filter="url(#filter0_i)">
<circle cx="74" cy="74" r="74" fill="#295A7A"/>
<mask id="mask0" mask-type="alpha" maskUnits="userSpaceOnUse" x="0" y="0" width="148" height="148">
<circle cx="74" cy="74" r="74" fill="#295A7A"/>
</mask>
<g mask="url(#mask0)">
<path d="M106 59L114 66.5L103.5 77.5L102.5 87.5V96.5L96.5 102V109L88 124H76L67 109L64.5 87.5L51.5 74L32.5 70.5L24.5 53.5L41 25L44 29L62 25L73.5 31.5H91.5L106 59Z" fill="#FFE1AF"/>
<path d="M109 96V108.5L115 110.5V105.5L118 96L115 91L109 96Z" fill="#FFE1AF"/>
<path d="M33 20.5V14.5L43 7.5L60 1.5L79 -2.5L100 1.5V7.5L92 12.5L81.5 20.5L67.5 14.5H63H51.5L33 20.5Z" fill="#FFE1AF"/>
<path d="M55 136L43 140.5L41 146.5V151.5L83.5 154C90 151.667 103.4 146.9 105 146.5C106.6 146.1 107.333 142.333 107.5 140.5L94 136H76.5L68 138.5L55 136Z" fill="#FFE1AF"/>
</g>
</g>
<defs>
<filter id="filter0_i" x="0" y="0" width="148" height="148" filterUnits="userSpaceOnUse" color-interpolation-filters="sRGB">
<feFlood flood-opacity="0" result="BackgroundImageFix"/>
<feBlend mode="normal" in="SourceGraphic" in2="BackgroundImageFix" result="shape"/>
<feColorMatrix in="SourceAlpha" type="matrix" values="0 0 0 0 0 0 0 0 0 0 0 0 0 0 0 0 0 0 127 0" result="hardAlpha"/>
<feOffset dx="-49"/>
<feComposite in2="hardAlpha" operator="arithmetic" k2="-1" k3="1"/>
<feColorMatrix type="matrix" values="0 0 0 0 0 0 0 0 0 0 0 0 0 0 0 0 0 0 0.15 0"/>
<feBlend mode="normal" in2="shape" result="effect1_innerShadow"/>
</filter>
</defs>
</svg>
