<svg width="228" height="212" viewBox="0 0 228 212" fill="none" xmlns="http://www.w3.org/2000/svg">
<path d="M18.0938 126.964C23.2984 152.76 37.9126 175.698 59.0933 191.316C80.274 206.933 106.507 214.113 132.689 211.46C158.87 208.806 183.129 196.508 200.745 176.959C218.362 157.409 228.077 132.006 228 105.69C227.923 79.374 218.059 54.0277 200.329 34.5816C182.598 15.1354 158.268 2.97984 132.071 0.479525C105.874 -2.02079 79.684 5.31292 58.5951 21.054C37.5061 36.7952 23.0265 59.8181 17.9729 85.6442L24.8857 86.9969C29.6035 62.887 43.1209 41.394 62.8085 26.6989C82.496 12.0038 106.946 5.15744 131.402 7.4916C155.858 9.82576 178.571 21.1735 195.124 39.3275C211.676 57.4814 220.884 81.1434 220.956 105.71C221.028 130.277 211.958 153.993 195.513 172.243C179.067 190.494 156.42 201.974 131.978 204.452C107.536 206.929 83.0468 200.226 63.2736 185.646C43.5004 171.067 29.8574 149.653 24.9986 125.571L18.0938 126.964Z" fill="#242526"/>
<path d="M43 105.5C43 117.374 33.3741 127 21.5 127C9.62588 127 0 117.374 0 105.5C0 93.6259 9.62588 84 21.5 84C33.3741 84 43 93.6259 43 105.5ZM6.10274 105.5C6.10274 114.004 12.9963 120.897 21.5 120.897C30.0037 120.897 36.8973 114.004 36.8973 105.5C36.8973 96.9963 30.0037 90.1027 21.5 90.1027C12.9963 90.1027 6.10274 96.9963 6.10274 105.5Z" fill="#242526"/>
<circle cx="122" cy="106" r="33" fill="#242526"/>
</svg>
