<svg width="272" height="272" viewBox="0 0 272 272" fill="none" xmlns="http://www.w3.org/2000/svg">
<g filter="url(#filter0_i)">
<circle cx="136" cy="136" r="136" fill="#D5966A"/>
<mask id="mask0" mask-type="alpha" maskUnits="userSpaceOnUse" x="0" y="0" width="272" height="272">
<circle cx="136" cy="136" r="136" fill="#D5966A"/>
</mask>
<g mask="url(#mask0)">
<rect x="-26.9916" y="73" width="301.838" height="34.3301" transform="rotate(44.9208 -26.9916 73)" fill="#5B4837"/>
<rect x="-2.75854" y="49" width="301.838" height="34.3301" transform="rotate(44.9208 -2.75854 49)" fill="#B57D49"/>
<rect x="21.2415" y="25" width="301.838" height="34.3301" transform="rotate(44.9208 21.2415 25)" fill="#775430"/>
<rect x="77.2415" y="-13" width="301.838" height="34.3301" transform="rotate(44.9208 77.2415 -13)" fill="#5A4839"/>
<rect x="101.241" y="-37" width="301.838" height="34.3301" transform="rotate(44.9208 101.241 -37)" fill="#B27E4E"/>
<rect x="133.058" y="-68.8378" width="301.838" height="45.3991" transform="rotate(44.9208 133.058 -68.8378)" fill="#755232"/>
</g>
<circle cx="189.5" cy="166.5" r="37.5" fill="#D5966A"/>
<circle cx="189" cy="166" r="30" fill="#B88B62"/>
<circle cx="189" cy="166" r="24" fill="#9F7857"/>
</g>
<defs>
<filter id="filter0_i" x="0" y="0" width="272" height="272" filterUnits="userSpaceOnUse" color-interpolation-filters="sRGB">
<feFlood flood-opacity="0" result="BackgroundImageFix"/>
<feBlend mode="normal" in="SourceGraphic" in2="BackgroundImageFix" result="shape"/>
<feColorMatrix in="SourceAlpha" type="matrix" values="0 0 0 0 0 0 0 0 0 0 0 0 0 0 0 0 0 0 127 0" result="hardAlpha"/>
<feOffset dx="-30"/>
<feComposite in2="hardAlpha" operator="arithmetic" k2="-1" k3="1"/>
<feColorMatrix type="matrix" values="0 0 0 0 0 0 0 0 0 0 0 0 0 0 0 0 0 0 0.15 0"/>
<feBlend mode="normal" in2="shape" result="effect1_innerShadow"/>
</filter>
</defs>
</svg>
