<svg width="101" height="101" viewBox="0 0 101 101" fill="none" xmlns="http://www.w3.org/2000/svg">
<g filter="url(#filter0_i)">
<circle cx="50.5" cy="50.5" r="50.5" fill="#754530"/>
<g filter="url(#filter1_i)">
<circle cx="86.5" cy="53.5" r="8.5" fill="#5D3D2E"/>
<circle cx="27" cy="26" r="4" fill="#5D3D2E"/>
<circle cx="37.5" cy="15.5" r="3.5" fill="#5D3D2E"/>
<circle cx="57.5" cy="19.5" r="3.5" fill="#5D3D2E"/>
<circle cx="68" cy="33" r="4" fill="#5D3D2E"/>
<circle cx="79.5" cy="37.5" r="1.5" fill="#5D3D2E"/>
<circle cx="35" cy="45" r="2" fill="#5D3D2E"/>
<circle cx="61" cy="72" r="2" fill="#5D3D2E"/>
<circle cx="59" cy="90" r="2" fill="#5D3D2E"/>
<circle cx="15" cy="53" r="4" fill="#5D3D2E"/>
<circle cx="28.5" cy="55.5" r="2.5" fill="#5D3D2E"/>
<circle cx="47" cy="53" r="4" fill="#5D3D2E"/>
<circle cx="45" cy="68" r="4" fill="#5D3D2E"/>
<circle cx="38" cy="85" r="5" fill="#5D3D2E"/>
<circle cx="43.5" cy="31.5" r="7.5" fill="#5D3D2E"/>
<circle cx="25" cy="70" r="8" fill="#5D3D2E"/>
<circle cx="61.5" cy="50.5" r="6.5" fill="#5D3D2E"/>
<circle cx="72" cy="65" r="5" fill="#5D3D2E"/>
<circle cx="67" cy="82" r="6" fill="#5D3D2E"/>
</g>
</g>
<defs>
<filter id="filter0_i" x="0" y="0" width="101" height="101" filterUnits="userSpaceOnUse" color-interpolation-filters="sRGB">
<feFlood flood-opacity="0" result="BackgroundImageFix"/>
<feBlend mode="normal" in="SourceGraphic" in2="BackgroundImageFix" result="shape"/>
<feColorMatrix in="SourceAlpha" type="matrix" values="0 0 0 0 0 0 0 0 0 0 0 0 0 0 0 0 0 0 127 0" result="hardAlpha"/>
<feOffset dx="-11"/>
<feComposite in2="hardAlpha" operator="arithmetic" k2="-1" k3="1"/>
<feColorMatrix type="matrix" values="0 0 0 0 0 0 0 0 0 0 0 0 0 0 0 0 0 0 0.2 0"/>
<feBlend mode="normal" in2="shape" result="effect1_innerShadow"/>
</filter>
<filter id="filter1_i" x="11" y="12" width="85" height="80" filterUnits="userSpaceOnUse" color-interpolation-filters="sRGB">
<feFlood flood-opacity="0" result="BackgroundImageFix"/>
<feBlend mode="normal" in="SourceGraphic" in2="BackgroundImageFix" result="shape"/>
<feColorMatrix in="SourceAlpha" type="matrix" values="0 0 0 0 0 0 0 0 0 0 0 0 0 0 0 0 0 0 127 0" result="hardAlpha"/>
<feOffset dx="1"/>
<feGaussianBlur stdDeviation="1"/>
<feComposite in2="hardAlpha" operator="arithmetic" k2="-1" k3="1"/>
<feColorMatrix type="matrix" values="0 0 0 0 0.321569 0 0 0 0 0.168627 0 0 0 0 0.101961 0 0 0 1 0"/>
<feBlend mode="normal" in2="shape" result="effect1_innerShadow"/>
</filter>
</defs>
</svg>
