<svg width="192" height="487" viewBox="0 0 192 487" fill="none" xmlns="http://www.w3.org/2000/svg">
<path d="M119.761 293H70.7606C68.7844 303.162 67.8795 310.012 66.7606 325C65.7266 343.996 65.7666 354.501 66.7606 373C67.0793 385.201 67.6119 392.165 69.7606 405C73.3893 421.262 75.1456 430.321 80.7606 447C85.4863 461.216 88.8801 468.751 95.2606 482C95.6134 482.314 95.8417 482.232 96.2606 482C102.817 468.549 105.947 460.993 110.761 447.5C115.935 431.208 118.479 421.951 121.761 405C123.83 393.457 124.843 386.828 124.761 373C125.664 354.255 125.551 343.745 124.761 325C123.988 312.89 122.923 305.798 119.761 293Z" fill="#FC651C"/>
<path d="M112.717 297.735H78.7175C77.4101 317.329 77.3136 328.372 78.7175 348.235C81.2175 368.235 85.2175 386.235 94.7175 409.735C95.5579 410.423 95.991 410.364 96.7175 409.735C105.218 387.735 107.718 381.235 112.717 348.235C113.933 328.907 114.004 317.871 112.717 297.735Z" fill="#F6B932"/>
<path d="M69.7175 297.735C66.774 290.615 65.3272 286.573 63.2175 279.235H127.218C125.046 286.6 123.636 290.668 120.718 297.735H69.7175Z" fill="#653B47"/>
<path d="M190.218 234.235C185.718 201.735 168.218 168.735 155.218 160.735L127.218 279.235C148.718 287.235 158.218 303.235 169.718 334.735C179.218 318.235 186.718 301.235 190.218 275.235C191.9 260.761 192.153 252.015 190.218 234.235Z" fill="#C53D3D"/>
<path d="M0.71756 234.235C7.71756 194.735 30.2176 160.735 36.2176 160.735L63.2176 279.235C37.7175 288.735 27.2175 317.735 21.7176 334.735C8.21753 311.735 2.71753 293.735 0.71756 275.235C-0.17011 259.225 -0.305859 250.246 0.71756 234.235Z" fill="#C53D3D"/>
<path d="M36.2175 160.735C38.2175 208.735 42.2175 240.235 63.2175 279.235H127.218C150.218 236.735 151.718 208.735 155.218 160.735C153.781 110.441 147.407 83.7799 123.218 39.7352H66.7175C43.2176 86.7352 35.7176 110.235 36.2175 160.735Z" fill="#E2E1DD"/>
<path d="M92.7175 1.73599C82.3457 14.4986 76.7562 22.909 66.7175 39.736H123.218C114.172 24.4887 108.791 16.1029 97.7175 1.73599C95.8312 -0.552457 94.7307 -0.604806 92.7175 1.73599Z" fill="#C83A3A"/>
<path d="M84.7175 297.735H107.718V305.235C103.755 311.992 101.355 315.609 96.7175 321.735C95.9362 322.214 95.4987 322.255 94.7175 321.735C90.4776 316.104 88.2567 312.663 84.7175 305.735V297.735Z" fill="#FDEE83"/>
<circle cx="95.7175" cy="114.735" r="33" fill="#67414E"/>
<circle cx="95.7175" cy="114.735" r="25" fill="#A3CCD2"/>
<mask id="mask0" mask-type="alpha" maskUnits="userSpaceOnUse" x="70" y="89" width="51" height="51">
<circle cx="95.7175" cy="114.735" r="25" fill="#A3CCD2"/>
</mask>
<g mask="url(#mask0)">
<rect x="77.7175" y="132.787" width="53" height="10" transform="rotate(-42.8618 77.7175 132.787)" fill="#CDE8EB"/>
<rect x="77.7175" y="132.787" width="53" height="10" transform="rotate(-42.8618 77.7175 132.787)" fill="#CDE8EB"/>
<rect x="84.7175" y="139.787" width="53" height="10" transform="rotate(-42.8618 84.7175 139.787)" fill="#CDE8EB"/>
<rect x="84.7175" y="139.787" width="53" height="10" transform="rotate(-42.8618 84.7175 139.787)" fill="#FFFDFE"/>
</g>
<mask id="mask1" mask-type="alpha" maskUnits="userSpaceOnUse" x="36" y="39" width="120" height="241">
<path d="M36.2175 160.735C38.2175 208.735 42.2175 240.235 63.2175 279.235H127.218C150.218 236.735 151.718 208.735 155.218 160.735C153.781 110.441 147.407 83.7799 123.218 39.7352H66.7175C43.2176 86.7352 35.7176 110.235 36.2175 160.735Z" fill="#EAF5F8"/>
</mask>
<g mask="url(#mask1)">
<path d="M39.2175 210.735C83.9789 205.992 108.939 205.911 153.218 210.735V231.735C109.193 226.392 84.2042 226.722 39.2175 231.735V210.735Z" fill="#405260"/>
<path d="M45.7175 242.735C84.0704 238.681 105.741 238.703 144.718 242.735V252.735C105.448 249.428 83.7527 249.374 45.7175 252.735V242.735Z" fill="#405260"/>
</g>
<circle cx="95.2175" cy="199.235" r="22.5" fill="#67414E"/>
<circle cx="95.2175" cy="199.235" r="17.5" fill="#A3CCD2"/>
<mask id="mask2" mask-type="alpha" maskUnits="userSpaceOnUse" x="78" y="182" width="35" height="35">
<circle cx="95.2176" cy="199.235" r="17.0455" fill="#A3CCD2"/>
</mask>
<g mask="url(#mask2)">
<rect x="82.9448" y="211.544" width="36.1364" height="6.81818" transform="rotate(-42.8618 82.9448 211.544)" fill="#CDE8EB"/>
<rect x="82.9448" y="211.544" width="36.1364" height="6.81818" transform="rotate(-42.8618 82.9448 211.544)" fill="#CDE8EB"/>
<rect x="87.7175" y="216.316" width="36.1364" height="6.81818" transform="rotate(-42.8618 87.7175 216.316)" fill="#CDE8EB"/>
<rect x="87.7175" y="216.316" width="36.1364" height="6.81818" transform="rotate(-42.8618 87.7175 216.316)" fill="#FFFDFE"/>
</g>
</svg>
