<svg width="201" height="201" viewBox="0 0 201 201" fill="none" xmlns="http://www.w3.org/2000/svg">
<path d="M116.064 63.9437C113.159 64.4512 111.826 65.3039 110.064 67.9437L133.064 90.9437C135.361 89.388 136.117 88.0691 136.564 84.9437L116.064 63.9437Z" fill="#384346"/>
<path d="M107.064 37.4437C107.528 36.1363 107.928 35.5486 109.064 34.9437L119.564 49.4437L147.564 77.9437L165.064 92.4437C164.799 93.3158 164.311 93.6179 163.064 93.9437C160.76 94.1532 159.348 94.2123 156.064 93.9437C147.807 91.9169 143.618 90.088 137.064 85.4437L116.064 64.4437C111.31 58.2534 110.013 54.3376 107.585 47.0051L107.564 46.9437C106.927 41.8994 106.887 40.0287 107.064 37.4437Z" fill="#384346"/>
<rect x="60.2841" y="117.873" width="32.0388" height="10.098" rx="5.049" transform="rotate(45 60.2841 117.873)" fill="#384346"/>
<rect x="48.634" y="109.822" width="73.1426" height="60.1151" rx="6" transform="rotate(-45 48.634 109.822)" fill="#EAF5F8"/>
<rect x="22.3146" y="0.219604" width="85.6959" height="31.2452" rx="4" transform="rotate(45 22.3146 0.219604)" fill="#3C464A"/>
<rect x="140.158" y="117.944" width="85.6959" height="31.2452" rx="4" transform="rotate(45 140.158 117.944)" fill="#3C464A"/>
<ellipse cx="138.671" cy="62.6538" rx="40.7084" ry="10.1617" transform="rotate(44.8803 138.671 62.6538)" fill="#EAF5F8"/>
<rect x="134.22" y="64.5427" width="19.76" height="3.16865" rx="1.58433" transform="rotate(-45 134.22 64.5427)" fill="#8BA6B0"/>
<circle cx="150.564" cy="50.4437" r="4.5" fill="#F9544E"/>
<rect x="72.746" y="70.9438" width="10.4732" height="2.37819" transform="rotate(45 72.746 70.9438)" fill="#3C464A"/>
<rect x="12.1941" y="10.3899" width="85.6329" height="2.37819" transform="rotate(45 12.1941 10.3899)" fill="#88A7B8"/>
<rect x="129.949" y="128.146" width="85.6861" height="2.37967" transform="rotate(45 129.949 128.146)" fill="#88A7B8"/>
<rect x="122.637" y="120.834" width="10.3247" height="2.37819" transform="rotate(45 122.637 120.834)" fill="#3C464A"/>
<rect x="68.9215" y="130.072" width="73.0824" height="2.84162" transform="rotate(-45 68.9215 130.072)" fill="#8BA6B0"/>
<rect x="87.5089" y="70.9883" width="60.0838" height="24.6076" transform="rotate(45 87.5089 70.9883)" fill="#DA3B2A"/>
<rect x="105.314" y="73.9438" width="29.9624" height="3.18185" rx="1.59093" transform="rotate(45 105.314 73.9438)" fill="#8BA6B0"/>
<rect x="124.239" y="146.212" width="31.244" height="2.55594" transform="rotate(-45 124.239 146.212)" fill="#88A7B8"/>
<rect x="76.5204" y="54.4271" width="31.2339" height="2.55594" transform="rotate(135 76.5204 54.4271)" fill="#88A7B8"/>
<rect x="135.064" y="157.037" width="31.244" height="2.55594" transform="rotate(-45 135.064 157.037)" fill="#88A7B8"/>
<rect x="65.6924" y="43.6046" width="31.2355" height="2.55695" transform="rotate(135 65.6924 43.6046)" fill="#88A7B8"/>
<rect x="145.544" y="167.516" width="31.2499" height="2.56" transform="rotate(-45 145.544 167.516)" fill="#88A7B8"/>
<rect x="55.2152" y="33.1229" width="31.2325" height="2.56" transform="rotate(135 55.2152 33.1229)" fill="#88A7B8"/>
<rect x="156.064" y="178.037" width="31.244" height="2.55594" transform="rotate(-45 156.064 178.037)" fill="#88A7B8"/>
<rect x="44.689" y="22.6083" width="31.2281" height="2.55594" transform="rotate(135 44.689 22.6083)" fill="#88A7B8"/>
<rect x="166.547" y="188.515" width="31.2273" height="2.56" transform="rotate(-45 166.547 188.515)" fill="#88A7B8"/>
<rect x="34.21" y="12.1262" width="31.2282" height="2.56" transform="rotate(135 34.21 12.1262)" fill="#88A7B8"/>
<path d="M174.073 196.034L196.155 173.953L197.927 175.725C199.489 177.287 199.489 179.82 197.927 181.382L181.503 197.806C179.94 199.368 177.408 199.368 175.846 197.806L174.073 196.034Z" fill="#DA3B2A"/>
<path d="M26.6899 4.60059L4.6007 26.6898L2.82849 24.9176C1.26639 23.3555 1.26639 20.8228 2.82849 19.2607L19.2609 2.82837C20.823 1.26627 23.3556 1.26627 24.9177 2.82837L26.6899 4.60059Z" fill="#DA3B2A"/>
</svg>
