<svg width="413" height="825" viewBox="0 0 413 825" fill="none" xmlns="http://www.w3.org/2000/svg">
<path d="M0.499969 825C109.902 825 214.823 781.54 292.182 704.182C369.54 626.823 413 521.902 413 412.5C413 303.098 369.54 198.177 292.182 120.818C214.823 43.4597 109.902 2.13013e-05 0.500092 0L0.5 412.5L0.499969 825Z" fill="#FCC304"/>
<circle opacity="0.61" cx="172.5" cy="497.5" r="84.5" fill="#FFAB01"/>
<rect opacity="0.5" x="38" y="268" width="262" height="66" rx="33" fill="#FCE48C"/>
<mask id="mask0" mask-type="alpha" maskUnits="userSpaceOnUse" x="0" y="0" width="413" height="825">
<path d="M0.499969 825C109.902 825 214.823 781.54 292.182 704.182C369.54 626.823 413 521.902 413 412.5C413 303.098 369.54 198.177 292.182 120.818C214.823 43.4597 109.902 2.13013e-05 0.500092 0L0.5 412.5L0.499969 825Z" fill="#FCC304"/>
</mask>
<g mask="url(#mask0)">
<rect opacity="0.5" x="196" y="413" width="262" height="71" rx="35.5" fill="#FCE48C"/>
<rect opacity="0.5" x="196" y="89" width="262" height="71" rx="35.5" fill="#FCE48C"/>
<rect opacity="0.5" x="-213" y="135" width="262" height="71" rx="35.5" fill="#FCE48C"/>
<rect opacity="0.5" x="-131" y="589" width="262" height="71" rx="35.5" fill="#FCE48C"/>
<circle opacity="0.61" cx="413" cy="264" r="81" fill="#FFAB01"/>
<circle opacity="0.61" cx="233.5" cy="778.5" r="98.5" fill="#FFAB01"/>
<circle opacity="0.61" cx="74" cy="-19" r="114" fill="#FFAB01"/>
</g>
<path opacity="0.61" fill-rule="evenodd" clip-rule="evenodd" d="M0 368.793C7.81368 370.885 16.0266 372 24.5 372C76.6909 372 119 329.691 119 277.5C119 225.309 76.6909 183 24.5 183C16.0266 183 7.81368 184.115 0 186.207V368.793Z" fill="#FFAB01"/>
</svg>
