<svg width="49" height="116" viewBox="0 0 49 116" fill="none" xmlns="http://www.w3.org/2000/svg">
<path d="M36.75 70.2824C41.4207 72.979 45.0711 77.1415 47.135 82.1243C49.199 87.107 49.5611 92.6315 48.1652 97.8411C46.7693 103.051 43.6934 107.654 39.4147 110.937C35.1359 114.22 29.8933 116 24.5 116C19.1067 116 13.8641 114.22 9.58535 110.937C5.30656 107.654 2.2307 103.051 0.834818 97.8411C-0.561068 92.6316 -0.198971 87.107 1.86495 82.1243C3.92887 77.1415 7.57927 72.979 12.25 70.2824L13.778 72.929C9.68993 75.2893 6.49488 78.9326 4.68841 83.2938C2.88193 87.655 2.565 92.4904 3.78677 97.0501C5.00854 101.61 7.70072 105.639 11.4458 108.513C15.1908 111.386 19.7795 112.944 24.5 112.944C29.2205 112.944 33.8092 111.386 37.5542 108.513C41.2993 105.639 43.9915 101.61 45.2132 97.0501C46.435 92.4904 46.1181 87.655 44.3116 83.2938C42.5051 78.9326 39.3101 75.2893 35.222 72.929L36.75 70.2824Z" fill="#242526"/>
<path fill-rule="evenodd" clip-rule="evenodd" d="M24.5 0C17.5964 0 12 5.59644 12 12.5V67.5C12 74.4036 17.5964 80 24.5 80C31.4036 80 37 74.4036 37 67.5V12.5C37 5.59644 31.4036 0 24.5 0ZM24.5 3C19.2533 3 15 7.2533 15 12.5V67.5C15 72.7467 19.2533 77 24.5 77C29.7467 77 34 72.7467 34 67.5V12.5C34 7.25329 29.7467 3 24.5 3Z" fill="black" fill-opacity="0.81"/>
<path d="M35.638 73.1741C34.59 75.2312 32.9927 76.958 31.0233 78.1628C29.0539 79.3677 26.7893 80.0036 24.4806 80C22.1718 79.9964 19.9092 79.3535 17.9435 78.1425C15.9779 76.9315 14.386 75.1998 13.3444 73.1394L24.5 67.5L35.638 73.1741Z" fill="#C4C4C4"/>
<circle cx="24.5" cy="91.5" r="17.5" fill="#F02626"/>
<rect x="18" y="22" width="13" height="64" rx="6" fill="#F02626"/>
<rect x="39" y="56" width="10" height="3" rx="1.5" fill="#242526"/>
<rect x="39" y="42" width="10" height="3" rx="1.5" fill="#242526"/>
<rect x="39" y="29" width="10" height="3" rx="1.5" fill="#242526"/>
<rect x="39" y="15" width="10" height="3" rx="1.5" fill="#242526"/>
<path opacity="0.6" d="M30.1283 104.863C27.8662 105.816 25.3992 106.179 22.9585 105.918C20.5177 105.657 18.1832 104.781 16.1736 103.371C14.1641 101.962 12.5452 100.065 11.4687 97.8589C10.3923 95.6529 9.89343 93.2098 10.019 90.7584L12.9886 90.9105C12.8888 92.8591 13.2854 94.8013 14.1411 96.5549C14.9968 98.3085 16.2837 99.8162 17.8812 100.937C19.4786 102.057 21.3344 102.754 23.2746 102.961C25.2148 103.169 27.1759 102.88 28.9741 102.123L30.1283 104.863Z" fill="white"/>
</svg>
