<svg width="220" height="237" viewBox="0 0 220 237" fill="none" xmlns="http://www.w3.org/2000/svg">
<g filter="url(#filter0_i)">
<circle cx="106.73" cy="110.669" r="79.5" fill="#9399CD"/>
</g>
<g filter="url(#filter1_i)">
<mask id="mask0" mask-type="alpha" maskUnits="userSpaceOnUse" x="27" y="31" width="160" height="160">
<circle cx="106.73" cy="110.669" r="79.5" fill="#9399CD"/>
</mask>
<g mask="url(#mask0)">
<rect x="4.86487" y="130.968" width="23" height="125" transform="rotate(-48.9973 4.86487 130.968)" fill="#6E76BD"/>
<rect x="-21.5946" y="78.2476" width="19.7151" height="211.645" transform="rotate(-49.1131 -21.5946 78.2476)" fill="#8397AF"/>
<rect x="10.0555" y="53.9001" width="19.7151" height="211.645" transform="rotate(-49.1131 10.0555 53.9001)" fill="#455E8C"/>
<rect x="23.2305" y="39.0739" width="19.7151" height="211.645" transform="rotate(-49.1131 23.2305 39.0739)" fill="#6D77BE"/>
<rect x="36.4054" y="24.2476" width="19.7151" height="211.645" transform="rotate(-49.1131 36.4054 24.2476)" fill="#8596B0"/>
<rect x="65.2305" y="-3.92615" width="22.7454" height="211.645" transform="rotate(-49.1131 65.2305 -3.92615)" fill="#415B8D"/>
</g>
</g>
<path d="M126.012 30.341C142.648 21.9265 157.587 19.0904 168.791 22.2194C179.995 25.3484 186.92 34.2902 188.621 47.8255C190.321 61.3607 186.715 78.8306 178.294 97.8527C169.872 116.875 157.046 136.523 141.564 154.119C126.081 171.714 108.696 186.4 91.7799 196.174C74.8635 205.948 59.2388 210.333 47.0365 208.733C34.8343 207.133 26.6484 199.624 23.5953 187.232C20.5421 174.839 22.7703 158.165 29.9759 139.485L33.7305 147.169C33.7305 147.169 29.8802 168.275 32.5983 179.308C35.3165 190.341 42.6041 197.026 53.4675 198.45C64.3309 199.875 78.2412 195.971 93.3015 187.269C108.362 178.568 123.839 165.493 137.623 149.829C151.406 134.164 162.825 116.671 170.323 99.7362C177.82 82.8012 181.03 67.2482 179.517 55.1981C178.003 43.148 171.838 35.1873 161.863 32.4016C151.888 29.6159 136.731 34.1691 136.731 34.1691L126.012 30.341Z" fill="#888FBB"/>
<path d="M140.059 35.0822C152.058 31.7215 162.005 32.6531 168.763 37.7704C175.521 42.8877 178.817 51.9846 178.277 64.0219C177.736 76.0593 173.38 90.552 165.705 105.845C158.03 121.138 147.347 136.614 134.874 150.506C122.402 164.399 108.644 176.147 95.1711 184.41C81.6984 192.673 69.0543 197.116 58.6827 197.234C48.3112 197.351 40.6304 193.137 36.5175 185.074C32.4047 177.01 32.0256 165.422 35.4236 151.632L40.2305 158.169C40.2305 158.169 39.7388 170.825 43.4403 178.082C47.1417 185.339 54.0543 189.131 63.3885 189.026C72.7226 188.92 84.1021 184.921 96.2273 177.484C108.352 170.048 120.734 159.475 131.959 146.972C143.184 134.469 152.799 120.541 159.706 106.777C166.613 93.0142 170.534 79.9711 171.021 69.1377C171.507 58.3044 168.54 50.1174 162.458 45.5119C156.376 40.9064 149.73 41.1692 149.73 41.1692L140.059 35.0822Z" fill="#8197AD"/>
<defs>
<filter id="filter0_i" x="27.2305" y="31.1692" width="159" height="159" filterUnits="userSpaceOnUse" color-interpolation-filters="sRGB">
<feFlood flood-opacity="0" result="BackgroundImageFix"/>
<feBlend mode="normal" in="SourceGraphic" in2="BackgroundImageFix" result="shape"/>
<feColorMatrix in="SourceAlpha" type="matrix" values="0 0 0 0 0 0 0 0 0 0 0 0 0 0 0 0 0 0 127 0" result="hardAlpha"/>
<feOffset dx="-18"/>
<feComposite in2="hardAlpha" operator="arithmetic" k2="-1" k3="1"/>
<feColorMatrix type="matrix" values="0 0 0 0 0 0 0 0 0 0 0 0 0 0 0 0 0 0 0.2 0"/>
<feBlend mode="normal" in2="shape" result="effect1_innerShadow"/>
</filter>
<filter id="filter1_i" x="27.2305" y="31.1692" width="159" height="159" filterUnits="userSpaceOnUse" color-interpolation-filters="sRGB">
<feFlood flood-opacity="0" result="BackgroundImageFix"/>
<feBlend mode="normal" in="SourceGraphic" in2="BackgroundImageFix" result="shape"/>
<feColorMatrix in="SourceAlpha" type="matrix" values="0 0 0 0 0 0 0 0 0 0 0 0 0 0 0 0 0 0 127 0" result="hardAlpha"/>
<feOffset dx="-18"/>
<feComposite in2="hardAlpha" operator="arithmetic" k2="-1" k3="1"/>
<feColorMatrix type="matrix" values="0 0 0 0 0 0 0 0 0 0 0 0 0 0 0 0 0 0 0.2 0"/>
<feBlend mode="normal" in2="shape" result="effect1_innerShadow"/>
</filter>
</defs>
</svg>
